PathFileType	4	(X/Y/Z)	D:\TRACE\spotREDO_2-26-24\spot_Both_Motion_3_9-platform.trc
DataRate	CameraRate	NumFrames	NumMarkers	Units	OrigDataRate	OrigDataStartFrame	OrigNumFrames
100.00	100.00	      73	5	mm	100.00	3501	      7000
Frame#	Time	Left_Front			Right_Front			Left_Aft			Right_Aft			Post			
		X1	Y1	Z1	X2	Y2	Z2	X3	Y3	Z3	X4	Y4	Z4	X5	Y5	Z5	

3501	35.000	-670.91858	-6.59666	-576.61334	743.35406	2.78669	-491.66559	-742.61841	7.12441	642.13348	826.47656	14.53617	647.60596	23.02740	618.22119	-986.09479	
3502	35.010	-670.65131	-7.21022	-576.45508	743.37592	2.38207	-491.81799	-742.51880	7.42173	642.06689	826.38635	14.75231	647.45929	23.40936	617.51599	-986.55603	
3503	35.020	-670.87805	-7.43776	-576.79407	743.35394	2.16470	-491.96469	-742.75757	8.33356	642.08960	826.52118	15.16566	647.31403	22.99979	616.93994	-987.08704	
3504	35.030	-670.78302	-7.89114	-576.89911	743.84009	1.58526	-491.97647	-742.64471	8.29912	641.91962	826.70825	15.79963	646.87262	23.38665	616.32849	-987.49408	
3505	35.040	-670.64655	-8.32567	-576.89117	743.81573	1.52197	-492.11417	-742.53821	8.95774	641.85608	826.81525	16.15286	646.84729	23.33028	615.75671	-987.97156	
3506	35.050	-670.55920	-8.75481	-576.92560	743.76703	1.15509	-492.20154	-742.54755	9.18896	641.54956	826.85461	16.51417	646.90637	23.46898	614.80811	-988.57886	
3507	35.060	-670.48627	-9.19535	-577.16437	743.85858	0.87454	-492.33588	-742.28259	9.52283	641.57654	826.74152	17.08828	646.82220	23.66306	614.03107	-988.99976	
3508	35.070	-670.38843	-9.49229	-577.29980	744.07117	0.33426	-492.31186	-742.30646	9.77534	641.29187	826.78473	17.39873	646.61182	23.63321	613.50958	-989.32745	
3509	35.080	-670.36530	-9.75113	-577.28534	744.07111	0.03624	-492.45691	-742.32886	10.12856	641.18457	826.94238	17.82917	646.42273	23.43445	612.93927	-989.96033	
3510	35.090	-670.38721	-10.01865	-577.39459	744.18707	-0.42959	-492.54184	-742.16962	10.61554	641.12207	827.08722	18.39976	646.35498	23.42484	612.14978	-990.70959	
3511	35.100	-670.39026	-10.36419	-577.45923	744.35089	-0.78190	-492.55951	-742.28656	11.30584	640.94470	827.11346	18.62830	646.32196	23.63158	611.52283	-991.33447	
3512	35.110	-670.21228	-11.12510	-577.59515	744.52576	-1.14202	-492.60324	-742.24591	11.66283	640.78448	827.24200	19.02394	646.14069	23.56475	610.97571	-991.70526	
3513	35.120	-670.24615	-11.58785	-577.67053	744.48572	-1.51980	-492.81412	-742.24518	11.91622	640.71906	827.20923	19.21256	646.05817	23.76467	610.24225	-992.01617	
3514	35.130	-670.29108	-11.81314	-577.69507	744.54456	-1.79625	-492.98401	-742.05585	12.06607	640.69574	827.22931	19.54238	645.95319	23.86446	609.71277	-992.78918	
3515	35.140	-670.28418	-12.02090	-577.74670	744.48151	-1.86047	-493.04056	-741.90485	12.40990	640.60980	827.33057	20.13013	645.75366	24.09214	609.03320	-993.34625	
3516	35.150	-670.17889	-12.22210	-577.82617	744.56964	-1.94993	-493.09186	-741.85461	12.92559	640.38733	827.29242	20.41626	645.64276	24.17343	608.60864	-993.69745	
3517	35.160	-670.03558	-12.62320	-577.83948	744.53271	-2.15924	-493.21991	-741.80823	13.27130	640.33069	827.47540	20.76411	645.60962	24.17262	608.04694	-993.94916	
3518	35.170	-669.99927	-12.91114	-577.84192	744.72852	-2.43761	-493.34567	-741.78931	13.55112	640.26581	827.64954	20.95351	645.56354	24.20107	607.55450	-994.14648	
3519	35.180	-669.83563	-13.28612	-578.02179	744.97858	-3.00351	-493.25568	-741.63055	13.80689	640.18146	827.77051	21.23737	645.51367	24.11613	607.07904	-994.53265	
3520	35.190	-669.69098	-13.48258	-578.08380	745.22943	-3.20025	-493.17868	-741.56793	14.02850	640.08044	827.95789	21.54836	645.49048	24.16013	606.66254	-994.62695	
3521	35.200	-669.61151	-13.81143	-578.19562	745.00385	-3.13739	-493.41898	-741.58740	14.27079	639.99237	827.82874	21.88398	645.34949	24.25990	606.00580	-995.02509	
3522	35.210	-669.69330	-14.06797	-578.34747	744.99579	-3.54104	-493.54422	-741.62347	14.63760	639.93616	827.76715	22.27984	645.11096	24.45616	605.40192	-995.70685	
3523	35.220	-669.64368	-14.48473	-578.38733	744.87628	-3.72303	-493.62131	-741.58679	14.99951	639.76038	827.71851	22.58917	644.95398	24.35523	605.07062	-996.08875	
3524	35.230	-669.64514	-14.80300	-578.41351	745.01819	-4.20536	-493.59448	-741.43585	15.26712	639.69739	827.77277	22.75629	644.89038	24.27635	604.76337	-996.31165	
3525	35.240	-669.60205	-15.11529	-578.45264	745.10016	-4.47293	-493.64893	-741.40460	15.60484	639.67554	827.73456	22.94855	644.78302	24.38115	604.23926	-996.46271	
3526	35.250	-669.51874	-15.42701	-578.52594	745.19727	-4.81102	-493.78650	-741.32483	15.79679	639.56403	827.79742	23.09056	644.72852	24.88234	603.54279	-996.78052	
3527	35.260	-669.46326	-15.63081	-578.64142	745.21674	-4.96754	-493.89355	-741.25903	16.01358	639.54297	827.85162	23.45280	644.77850	24.38881	603.19501	-997.55658	
3528	35.270	-669.37451	-15.81919	-578.66064	745.17053	-5.13408	-493.91711	-741.26868	16.21042	639.49353	828.01196	23.68242	644.72864	24.66219	602.86017	-997.97388	
3529	35.280	-669.27673	-16.04104	-578.71936	745.14813	-5.11662	-493.99588	-741.26813	16.34783	639.48853	828.09534	23.86712	644.74457	24.72462	602.69934	-998.23663	
3530	35.290	-669.25928	-16.18731	-578.72375	745.14337	-5.27256	-494.16342	-741.24365	16.48274	639.47321	828.15588	24.08464	644.75183	24.94051	602.54565	-998.38080	
3531	35.300	-669.25677	-16.27894	-578.73303	745.17963	-5.34697	-494.17584	-741.25903	16.71728	639.40601	828.14014	24.36322	644.72247	24.91823	602.16541	-998.50885	
3532	35.310	-669.33105	-16.41519	-578.76862	745.21814	-5.41780	-494.18750	-741.19159	16.95688	639.30469	828.21082	24.70800	644.68365	24.70960	601.68762	-998.66980	
3533	35.320	-669.28448	-16.42798	-578.75610	745.31067	-5.57244	-494.18933	-741.13397	17.10203	639.26611	828.26855	25.01249	644.67737	24.74766	601.46820	-998.70929	
3534	35.330	-669.33099	-16.47589	-578.77979	745.32794	-5.67541	-494.25739	-741.14825	17.25322	639.16766	828.28540	25.08448	644.64764	24.74217	601.28546	-998.77631	
3535	35.340	-669.49084	-16.28859	-578.85181	745.33630	-5.75667	-494.15469	-741.09735	17.29056	639.13458	828.27649	25.14157	644.64722	24.70152	601.04968	-998.85748	
3536	35.350	-669.46320	-16.37923	-578.86853	745.33521	-5.84028	-494.16635	-741.10059	17.35330	639.14886	828.23334	25.19010	644.61371	24.74777	600.87555	-998.88574	
3537	35.360	-669.46661	-16.50674	-578.86169	745.34747	-5.84057	-494.21335	-741.05524	17.40303	639.16235	828.17047	25.23661	644.59760	24.73144	600.81763	-998.91150	
3538	35.370	-669.42279	-16.56586	-578.86975	745.37006	-5.86559	-494.23175	-741.02600	17.46077	639.12134	828.23041	25.28154	644.55444	24.82132	600.77246	-998.96893	
3539	35.380	-669.41541	-16.50327	-578.92236	745.35461	-5.79939	-494.25894	-741.00793	17.54078	639.09277	828.20459	25.33039	644.55157	24.85228	600.77258	-999.05145	
3540	35.390	-669.43481	-16.57612	-578.90826	745.35657	-5.86959	-494.26767	-740.95996	17.50383	639.08063	828.25134	25.33323	644.54382	24.91961	600.73163	-999.09393	
3541	35.400	-669.39447	-16.65875	-578.84772	745.33331	-5.91281	-494.28848	-741.15869	17.84793	639.06671	828.25604	25.33981	644.52856	24.88107	600.70764	-999.12091	
3542	35.410	-669.36908	-16.73306	-578.87286	745.55432	-6.15242	-494.15906	-740.97015	17.51824	639.13391	828.29449	25.34041	644.53326	24.92680	600.68359	-999.15240	
3543	35.420	-669.36951	-16.72576	-578.90448	745.35712	-5.94535	-494.23669	-740.96106	17.51289	639.10529	828.26599	25.35225	644.53766	24.91732	600.68781	-999.11993	
3544	35.430	-669.36395	-16.66825	-578.91357	745.43158	-5.91310	-494.22742	-740.92102	17.52381	639.09235	828.30713	25.31835	644.52985	24.93654	600.70056	-999.13556	
3545	35.440	-669.35596	-16.57509	-578.89667	745.41229	-5.89233	-494.27188	-741.01056	17.53393	639.08148	828.26221	25.30313	644.55231	24.87212	600.71277	-999.10834	
3546	35.450	-669.39362	-16.58313	-578.91638	745.37665	-5.88684	-494.22958	-740.95258	17.48096	639.11267	828.26715	25.24887	644.57275	24.93410	600.73541	-999.06299	
3547	35.460	-669.40857	-16.53005	-578.90747	745.37463	-5.84155	-494.22681	-740.96362	17.46414	639.15009	828.26038	25.20673	644.61353	24.83469	600.78650	-999.00568	
3548	35.470	-669.37811	-16.45395	-578.92273	745.38733	-5.85404	-494.22083	-740.96948	17.40379	639.12531	828.34637	25.17166	644.59070	24.85504	600.85254	-998.99957	
3549	35.480	-669.40289	-16.34855	-578.91974	745.37537	-5.81330	-494.19516	-740.96710	17.37560	639.17841	828.32849	25.16728	644.61914	24.82541	600.99707	-998.98279	
3550	35.490	-669.40314	-16.24769	-578.83099	745.36273	-5.65809	-494.28897	-740.94019	17.24775	639.19525	828.47675	25.06569	644.63318	25.04031	601.18536	-998.89984	
3551	35.500	-669.39526	-16.09759	-578.85822	745.39850	-5.61966	-494.20526	-740.94482	17.16673	639.25598	828.43195	24.99268	644.67816	24.86630	601.42572	-998.75067	
3552	35.510	-669.39313	-16.03260	-578.83069	745.38104	-5.44619	-494.21259	-740.87897	16.96345	639.32654	828.61310	24.67313	644.63898	25.07476	601.62988	-998.60284	
3553	35.520	-669.36212	-15.99100	-578.76904	745.30658	-5.39800	-494.14618	-740.94305	16.75241	639.38354	828.52924	24.43366	644.71790	25.13646	602.19019	-998.48407	
3554	35.530	-669.41150	-15.93011	-578.72717	745.31104	-5.22848	-494.17120	-740.99658	16.43770	639.44312	828.30725	23.98782	644.69873	25.08156	602.52319	-998.43945	
3555	35.540	-669.36365	-15.85016	-578.70331	745.29565	-5.01551	-494.15512	-741.05548	16.28570	639.45685	828.20880	23.81676	644.73187	24.91909	602.74139	-998.21765	
3556	35.550	-669.37738	-15.72336	-578.62988	745.45972	-4.91539	-493.89240	-741.04633	16.06126	639.45386	828.16772	23.73118	644.78809	24.96907	602.98615	-997.96674	
3557	35.560	-669.29065	-15.31986	-578.43158	745.47992	-4.78704	-493.77451	-741.04926	15.93631	639.51996	828.12463	23.31432	644.77759	24.91891	603.60211	-997.31671	
3558	35.570	-669.31085	-14.87450	-578.33875	745.47711	-4.45477	-493.61743	-741.02417	15.65077	639.60803	828.21564	22.95838	644.91205	24.85162	604.31549	-996.89099	
3559	35.580	-669.19720	-14.45785	-578.31964	745.49512	-3.92037	-493.47153	-740.91370	15.10913	639.77026	828.20264	22.76271	644.98065	24.72715	604.82813	-996.38275	
3560	35.590	-669.17255	-14.07139	-578.29498	745.42126	-3.66863	-493.43918	-740.90594	14.68834	639.86737	828.27344	22.27168	645.05670	24.76384	605.19562	-996.01703	
3561	35.600	-669.15222	-13.80765	-578.28503	745.41821	-3.21569	-493.46915	-740.99139	14.33127	640.01257	828.40552	21.85024	645.22461	24.92166	605.94720	-995.38501	
3562	35.610	-669.31592	-13.49198	-578.17084	745.41608	-3.12427	-493.31668	-741.17719	14.01161	640.10193	828.31433	21.58633	645.45862	24.59780	606.75977	-994.78723	
3563	35.620	-669.48663	-13.18005	-578.04803	745.30725	-2.84182	-493.28021	-741.24622	13.76431	640.22699	828.13177	21.22135	645.55536	24.73110	607.34198	-994.21216	
3564	35.630	-669.83978	-12.37576	-577.99200	745.02313	-2.33665	-493.39810	-741.44147	13.27968	640.25812	827.74969	20.87041	645.55249	24.59994	607.86444	-993.72467	
3565	35.640	-670.20020	-11.96787	-577.80072	744.82709	-1.98452	-493.19055	-741.49597	12.91383	640.38892	827.60376	20.47186	645.70551	24.41135	608.66315	-993.39343	
3566	35.650	-670.31396	-11.46910	-578.06592	744.79315	-1.79917	-493.17746	-741.47791	12.36528	640.65088	827.63220	20.04683	645.75446	24.43689	609.20886	-992.61963	
3567	35.660	-669.92688	-11.90373	-577.68219	744.84882	-1.66996	-492.94238	-741.71558	12.08496	640.70074	827.69952	19.59750	645.95880	24.34378	609.78235	-992.13849	
3568	35.670	-670.09241	-11.27589	-577.71039	744.74518	-1.21506	-492.76865	-741.98871	11.89835	640.72418	827.44135	19.19525	646.06360	23.77363	610.65906	-991.78003	
3569	35.680	-670.07214	-10.61964	-577.55225	744.61609	-0.88592	-492.61594	-741.97516	11.41280	640.79364	827.32965	18.86879	646.20630	23.62572	611.28052	-991.54767	
3570	35.690	-670.22241	-10.13792	-577.43036	744.46490	-0.61500	-492.56192	-742.02881	10.78513	641.03772	827.15417	18.49521	646.32928	23.82663	611.87305	-991.12225	
3571	35.700	-670.12286	-9.84225	-577.32745	744.29626	-0.02251	-492.47711	-742.18701	10.18638	641.14294	827.10669	17.98856	646.38922	23.40794	612.82623	-990.37469	
3572	35.710	-670.33856	-9.37446	-577.21466	744.06525	0.59074	-492.37885	-742.19342	9.84706	641.32019	826.96399	17.52407	646.57336	23.67707	613.49146	-989.82294	
3573	35.720	-670.62396	-8.98591	-577.04785	743.68054	0.93335	-492.27640	-742.48083	9.32800	641.47272	826.82861	16.96811	646.82684	23.45773	614.25427	-989.32092	
